# xmcd
#
# Track frame offsets: 
#        150
#        13688
#        27173
#        38978
#        51953
#        65393
#        77273
#        90453
#        105380
#        118935
#        133158
#        148063
#        161140
#        174323
#        189613
#        200378
#        213835
#        225533
#        238418
#        252418
#        271698
#        286813
#
# Disc length: 4007 seconds
#
# Revision: 8
# Processed by: cddbd v1.5.1PL0 Copyright (c) Steve Scherf et al.
# Submitted via: ExactAudioCopy v0.95a5
#
DISCID=330fa516
DTITLE=Various Artist - The Copulatin' Blues Compact Disc
DYEAR=1987
DGENRE=Blues
TTITLE0=Sidney Bechet and his New Orleans Footwarmers - Preachin' Blue
TTITLE0=s
TTITLE1=Lil Johnson - Stavin' Chain (That Rockin' Swing, #1)
TTITLE2=Oscar's Chicago Swingers - New Rubbin' On That Darn Old Thing
TTITLE3=Rosetta Howard and the Harlem Hamfats - The Candy Man
TTITLE4=Coot Grant and Kid Wesley Wilson - Take Your Hand Off My Mojo
TTITLE5=Merline Johnson,  the Yas-Yas Girl - Don't You Make Me High
TTITLE6=Frankie Half-Pint Jaxon and the Harlem Hamfats - Wet It!
TTITLE7=Lil Johnson with Black Bob - Press My Button, Ring My Bell
TTITLE8=Alberta Hunter - You Can't Tell the Difference After Dark
TTITLE9=Coot Grant and Kid Wesley Wilson - Get Off With Me
TTITLE10=Victoria Spivey and Red Allen's Orchestra - How Do They Do It
TTITLE10=That Way?
TTITLE11=Georgia White - If I Can't Sell It, I'll Keep Sittin' On It (
TTITLE11=Before I'll Give It Away)
TTITLE12=Jimmy Strange, the Yas-Yas Man - Yas! Yas! Yas!
TTITLE13=Tampa Red's Hokum Jazz Band with Frankie Half-Pint Jaxon - My
TTITLE13=Daddy Rocks Me With One Steady Roll
TTITLE14=Johnny Temple with the Harlem Hamfats - Stavin' Chain (#2)
TTITLE15=Bo Carter - Please Warm My Weiner
TTITLE16=Lil Johnson - You Stole My Cheryy
TTITLE17=Connie McLean's Rhythm Boys - Sissy Man Bues
TTITLE18=Mary Dixon - You Can't Sleep In My Bed
TTITLE19=Jelly Roll Morton - Winin' Boy
TTITLE20=Clara Smith - It's Tight Like That
TTITLE21=Lucille Bogan and Walter Roland - Shave 'Em Dry
EXTD=LABEL =Jass Records, Inc.\nID =J-CD-1\nUPC =03250-12001-22\nCO
EXTD=PYRIGHT =1987\n*****\nThe title for this cd really is "The Copul
EXTD=atin' Blues Compact Disc", not "The Copulatin' Blues".
EXTT0=
EXTT1=
EXTT2=
EXTT3=
EXTT4=
EXTT5=
EXTT6=
EXTT7=
EXTT8=
EXTT9=
EXTT10=
EXTT11=
EXTT12=
EXTT13=
EXTT14=
EXTT15=
EXTT16=
EXTT17=
EXTT18=
EXTT19=
EXTT20=
EXTT21=
PLAYORDER=
